<svg width="30" height="30" viewBox="0 0 30 30" fill="none" xmlns="http://www.w3.org/2000/svg">
<path d="M13.7891 23.3203L13.7109 23.2031L6.875 16.875C5.66406 15.7422 5 14.1797 5 12.5391V12.4219C5 9.6875 6.95312 7.30469 9.64844 6.79688C11.1719 6.48438 12.7344 6.83594 14.0234 7.73438C14.375 7.96875 14.6875 8.28125 15 8.59375C15.1562 8.4375 15.3125 8.24219 15.5078 8.08594C15.6641 7.96875 15.8203 7.85156 15.9766 7.73438C17.2266 6.83594 18.7891 6.48438 20.3125 6.79688C23.0469 7.30469 25 9.6875 25 12.4219V12.5391C25 14.1797 24.2969 15.7422 23.0859 16.875L16.25 23.2031L16.1719 23.3203C15.8594 23.5938 15.4297 23.7891 15 23.7891C14.5312 23.7891 14.1406 23.5938 13.7891 23.3203ZM14.3359 10.6641C14.2969 10.6641 14.2969 10.6641 14.2969 10.625L13.5938 9.84375C12.6953 8.82812 11.3281 8.39844 10 8.63281C8.16406 8.98438 6.875 10.5859 6.875 12.4219V12.5391C6.875 13.6719 7.30469 14.7266 8.125 15.4688L15 21.8359L21.8359 15.4688C22.6562 14.7266 23.125 13.6719 23.125 12.5391V12.4219C23.125 10.5859 21.7969 8.98438 19.9609 8.63281C18.6328 8.39844 17.2656 8.82812 16.3672 9.84375L15.6641 10.625C15.6641 10.6641 15.6641 10.6641 15.625 10.7031C15.4688 10.8594 15.2344 10.9766 15 10.9766C14.7266 10.9766 14.4922 10.8594 14.3359 10.7031V10.6641Z" fill="#FAFAFA"/>
</svg>
